<?xml version="1.0" encoding="UTF-8"?>
<svg width="36px" height="40px" viewBox="0 0 36 40" version="1.1" xmlns="http://www.w3.org/2000/svg" xmlns:xlink="http://www.w3.org/1999/xlink">
    <title>50000A4C-52E0-43B7-A640-90E2F444EEB2@1,5x</title>
    <g id="HomePage" stroke="none" stroke-width="1" fill="none" fill-rule="evenodd">
        <g id="DS-MyClick-homepage-mobile-1" transform="translate(-10.000000, -620.000000)">
            <g id="icons-/-Terms-Copy" transform="translate(10.000000, 620.000000)">
                <rect id="Rectangle" x="0" y="0" width="36" height="40"></rect>
                <g id="Group-6" transform="translate(5.000000, 7.000000)" fill="#2D7EDD" stroke="#2D7EDD">
                    <path d="M13,1.99997498 C6.93455865,1.99997498 1.99997498,6.93452612 1.99997498,13 C1.99997498,19.0654414 6.93455865,23.9999925 13,23.9999925 C19.0654088,23.9999925 23.9999925,19.0654414 23.9999925,13 C23.9999925,6.93452612 19.0654088,1.99997498 13,1.99997498 M13,26 C5.83154708,26 0,20.1684529 0,13 C0,5.83151454 5.83154708,0 13,0 C20.1684529,0 26,5.83151454 26,13 C26,20.1684529 20.1684529,26 13,26" id="Fill-7-Copy-2" stroke-width="0.5"></path>
                    <path d="M11.0958159,19 L6.22716241,14.132575 C5.9242792,13.8289918 5.9242792,13.3375131 6.22716241,13.0339299 C6.53082225,12.7311231 7.02242501,12.7311231 7.32608485,13.0339299 L11.0958159,16.8034862 L18.6741093,9.22710509 C18.9769925,8.9242983 19.4685953,8.9242983 19.7722551,9.22710509 C20.075915,9.5306883 20.075915,10.022167 19.7722551,10.3257502 L11.0958159,19" id="Fill-6-Copy" stroke-linecap="round" stroke-linejoin="round"></path>
                </g>
            </g>
        </g>
    </g>
</svg>