<?xml version="1.0" encoding="UTF-8"?>
<svg width="36px" height="40px" viewBox="0 0 36 40" version="1.1" xmlns="http://www.w3.org/2000/svg" xmlns:xlink="http://www.w3.org/1999/xlink">
    <title>D29FCE74-8FF5-4C54-B8AB-15A3AA0F8213@1,5x</title>
    <g id="HomePage" stroke="none" stroke-width="1" fill="none" fill-rule="evenodd">
        <g id="DS-MyClick-homepage-mobile-1" transform="translate(-10.000000, -441.000000)">
            <g id="icons-/-NDA-Copy" transform="translate(10.000000, 441.000000)">
                <rect id="Rectangle" x="0" y="0" width="36" height="40"></rect>
                <g id="Group-6" transform="translate(7.000000, 7.000000)" fill="#2D7EDD">
                    <g id="Group" transform="translate(0.359441, 0.784772)">
                        <path d="M2.50629371,11.962955 L2.50629371,19.4061773 C2.50629371,21.6801296 4.49403222,23.5304644 6.93788344,23.5304644 L12.727204,23.5304644 C15.1704124,23.5304644 17.1584723,21.6801296 17.1584723,19.4061773 L17.1584723,11.962955 L2.50629371,11.962955 Z M12.7081443,26.1010221 L6.95694104,26.1010221 C3.12067677,26.1010221 0,23.1464345 0,19.5153208 L0,9.57600861 L19.664766,9.57600861 L19.664766,19.5153208 C19.664766,23.1464345 16.5437699,26.1010221 12.7081443,26.1010221 L12.7081443,26.1010221 Z" id="Fill-14"></path>
                        <path d="M5.4910259,9.61291017 L14.00849,9.61291017 L14.00849,4.75556312 C14.00849,3.48466007 12.9358555,2.45034965 11.6175375,2.45034965 L7.88197841,2.45034965 C6.56333581,2.45034965 5.4910259,3.48466007 5.4910259,4.75556312 L5.4910259,9.61291017 Z M16.5250134,12.0632598 L2.97450242,12.0632598 L2.97450242,4.76673568 C2.97450242,2.13860964 5.18555423,0 7.90373978,0 L11.5957761,0 C14.3136409,0 16.5250134,2.13860964 16.5250134,4.76673568 L16.5250134,12.0632598 L16.5250134,12.0632598 Z" id="Fill-15"></path>
                        <path d="M9.91500807,19.9867671 C9.09367359,19.9867671 8.42775686,19.425483 8.42775686,18.7332014 L8.42775686,16.7785791 C8.42775686,16.0862975 9.09367359,15.5250134 9.91500807,15.5250134 C10.7363425,15.5250134 11.4022593,16.0862975 11.4022593,16.7785791 L11.4022593,18.7332014 C11.4022593,19.425483 10.7363425,19.9867671 9.91500807,19.9867671" id="Fill-16"></path>
                    </g>
                </g>
            </g>
        </g>
    </g>
</svg>