<?xml version="1.0" encoding="UTF-8"?>
<svg width="36px" height="40px" viewBox="0 0 36 40" version="1.1" xmlns="http://www.w3.org/2000/svg" xmlns:xlink="http://www.w3.org/1999/xlink">
    <title>EF04389F-C751-42AA-B816-7E2A752DBDAC@1,5x</title>
    <g id="HomePage" stroke="none" stroke-width="1" fill="none" fill-rule="evenodd">
        <g id="DS-MyClick-homepage-mobile-1" transform="translate(-10.000000, -264.000000)">
            <g id="Group-6" transform="translate(10.000000, 264.000000)">
                <rect id="Rectangle" x="0" y="0" width="36" height="40"></rect>
                <path d="M18.0000239,24 C15.8081311,24 14,22.2205064 14,19.9999761 C14,17.7812147 15.8062665,16 18.0000239,16 C20.1918689,16 22,17.7795892 22,19.9999761 C22,22.2187853 20.193351,24 18.0000239,24 M29.327606,21.8693705 C28.6844685,21.5010518 27.8628236,21.7197769 27.49164,22.3573546 L26.8196347,23.5118884 L24.3738326,22.1106614 C24.601497,21.4328287 24.7201968,20.7199044 24.7201968,20 C24.7201968,19.2801434 24.601497,18.5672191 24.3739772,17.8893865 L26.8197311,16.4881594 L27.4917845,17.6426454 C27.8642212,18.2824223 28.6867818,18.4978964 29.3277506,18.1306773 C29.970599,17.7624064 30.1908898,16.9471235 29.819658,16.3093546 L27.1315408,11.6905498 C26.7604536,11.0530677 25.9384713,10.8342948 25.2955747,11.2025179 C24.6527264,11.5707888 24.4324355,12.3861195 24.8036673,13.0238884 L25.4758171,14.1788048 L23.0290029,15.5805578 C22.0639352,14.5027092 20.7670576,13.759761 19.344155,13.4696096 L19.344155,10.6666773 L20.6881655,10.6666773 C21.4303881,10.6666773 22.0322241,10.0695936 22.0322241,9.33338645 C22.0322241,8.59708367 21.4303881,8 20.6881655,8 L15.3119791,8 C14.5696119,8 13.9679205,8.59708367 13.9679205,9.33338645 C13.9679205,10.0695936 14.5696119,10.6666773 15.3119791,10.6666773 L16.6559896,10.6666773 L16.6559896,13.469753 C15.233087,13.7599044 13.9362094,14.5028526 12.9711417,15.5807012 L10.5243275,14.1788048 L11.1964773,13.0238884 C11.5677091,12.3861195 11.3474182,11.5707888 10.7045699,11.2025179 C10.0618179,10.8343904 9.23969102,11.0529243 8.86855561,11.6905498 C7.90623488,13.3441594 7.14280727,14.655745 6.18048654,16.3093546 C5.80925474,16.9471235 6.02949742,17.7624064 6.67239398,18.1306773 C7.31394113,18.4980398 8.13630896,18.2818964 8.50836004,17.6426454 L9.18041345,16.4881594 L11.6261674,17.8893865 C11.3983584,18.5670757 11.2797069,19.2801434 11.2797069,20 C11.2797069,20.7199044 11.3983584,21.4329721 11.6260228,22.1106614 L9.18026887,23.5118884 L8.50826365,22.3573546 C8.13703185,21.7196335 7.31509776,21.5009562 6.6722494,21.8693705 C6.02940103,22.2376414 5.80911016,23.0529243 6.18034196,23.6906932 C7.14266269,25.344255 7.9060903,26.6558884 8.86841103,28.309498 C9.24089585,28.9494661 10.0635528,29.16451 10.7044253,28.7974821 C11.3472736,28.429259 11.5675645,27.6138805 11.1963327,26.9761594 L10.5241829,25.821243 L12.9708525,24.4194422 C13.9359203,25.4973386 15.2327978,26.2402869 16.6557486,26.5304382 L16.6557486,29.3333705 L15.31169,29.3333705 C14.569371,29.3333705 13.9676313,29.9304064 13.9676313,30.6666614 C13.9676313,31.4029641 14.569371,32 15.31169,32 L20.6878763,32 C21.4300989,32 22.0319349,31.4029641 22.0319349,30.6666614 C22.0319349,29.9304064 21.4300989,29.3333705 20.6878763,29.3333705 L19.3438659,29.3333705 L19.3438659,26.5302948 C20.7668167,26.2401434 22.0637906,25.4971952 23.0288583,24.4193466 L25.4755279,25.821243 L24.8033781,26.9761594 C24.4321945,27.6138805 24.6524372,28.429259 25.2953338,28.7974821 C25.9369291,29.1649402 26.7592487,28.9485578 27.1312998,28.309498 L29.8194171,23.6906932 C30.1907453,23.0528287 29.9705026,22.237498 29.327606,21.8693705" id="Fill-10" fill="#2D7EDD"></path>
            </g>
        </g>
    </g>
</svg>