<?xml version="1.0" encoding="UTF-8"?>
<svg width="40px" height="40px" viewBox="0 0 40 40" version="1.1" xmlns="http://www.w3.org/2000/svg" xmlns:xlink="http://www.w3.org/1999/xlink">
    <title>C4144B47-AE70-4D3F-8D45-F008F6B8498F@1,5x</title>
    <defs>
        <path d="M12.1455385,0.323937737 L6.07707692,6.51556584 C5.66569231,6.93521245 4.984,6.9499369 4.55430769,6.54816996 L4.55430769,6.54816996 C4.53384615,6.53029028 4.51553846,6.51030711 4.49723077,6.49032394 L4.49723077,6.49032394 L1.43661538,3.31931005 C0.920769231,2.78397139 0,3.141565 0,3.87673538 L0,3.87673538 L0,8.93458141 C0,9.52355911 0.467384615,10 1.04353846,10 L1.04353846,10 L12.9553846,10 C13.5326154,10 14,9.52355911 14,8.93458141 L14,8.93458141 L14,1.0517459 C14,0.470130416 13.5175385,0 12.9230769,0 L12.9230769,0 C12.6290769,0 12.348,0.116743795 12.1455385,0.323937737 L12.1455385,0.323937737 Z" id="path-1"></path>
    </defs>
    <g id="HomePage" stroke="none" stroke-width="1" fill="none" fill-rule="evenodd">
        <g id="DocuSign-MyClick-Homepage-Tablet" transform="translate(-42.000000, -23.000000)">
            <g id="Group-14" transform="translate(42.000000, 23.000000)">
                <rect id="Rectangle-Copy" fill="#D8F3F9" x="0" y="0" width="40" height="40" rx="8"></rect>
                <g id="Group-13" transform="translate(13.000000, 11.000000)">
                    <path d="M5.09581594,10 L0.227162411,5.13257502 C-0.0757208038,4.82899181 -0.0757208038,4.3375131 0.227162411,4.03392989 C0.53082225,3.7311231 1.02242501,3.7311231 1.32608485,4.03392989 L5.09581594,7.80348616 L12.6741093,0.227105089 C12.9769925,-0.0757016965 13.4685953,-0.0757016965 13.7722551,0.227105089 C14.075915,0.530688303 14.075915,1.02216701 13.7722551,1.32575022 L5.09581594,10" id="Fill-6-Copy" stroke="#2D7EDD" fill="#2D7EDD" stroke-linecap="round"></path>
                    <g id="Group-3" transform="translate(0.000000, 8.000000)">
                        <mask id="mask-2" fill="white">
                            <use xlink:href="#path-1"></use>
                        </mask>
                        <g id="Clip-2"></g>
                        <polygon id="Fill-1" fill="#2D7EDD" mask="url(#mask-2)" points="-9 15 16 15 16 -14 -9 -14"></polygon>
                    </g>
                </g>
            </g>
        </g>
    </g>
</svg>