<?xml version="1.0" encoding="UTF-8"?>
<svg width="24px" height="16px" viewBox="0 0 24 16" version="1.1" xmlns="http://www.w3.org/2000/svg" xmlns:xlink="http://www.w3.org/1999/xlink">
    <title>674F0230-849A-4217-9E64-0E70228C2816@1,5x</title>
    <g id="HomePage" stroke="none" stroke-width="1" fill="none" fill-rule="evenodd">
        <g id="DS-MyClick-homepage-mobile-2" transform="translate(-281.000000, -22.000000)" fill="#213B60" fill-rule="nonzero">
            <g id="Group" transform="translate(281.000000, 22.000000)">
                <g id="icons-/-menu" transform="translate(0.000000, -0.000000)">
                    <path d="M23.0625,14.1904762 C23.5802812,14.1904762 24,14.5955381 24,15.0952381 C24,15.5949381 23.5802812,16 23.0625,16 L23.0625,16 L0.9375,16 C0.41971875,16 0,15.5949381 0,15.0952381 C0,14.5955381 0.41971875,14.1904762 0.9375,14.1904762 L0.9375,14.1904762 Z M23.0625,7.14285714 C23.5802812,7.14285714 24,7.54791905 24,8.04761905 C24,8.54731905 23.5802812,8.95238095 23.0625,8.95238095 L23.0625,8.95238095 L0.9375,8.95238095 C0.41971875,8.95238095 0,8.54731905 0,8.04761905 C0,7.54791905 0.41971875,7.14285714 0.9375,7.14285714 L0.9375,7.14285714 Z M23.0625,-1.77580173e-12 C23.5802812,-1.77580173e-12 24,0.405061905 24,0.904761905 C24,1.4044619 23.5802812,1.80952381 23.0625,1.80952381 L23.0625,1.80952381 L0.9375,1.80952381 C0.41971875,1.80952381 0,1.4044619 0,0.904761905 C0,0.405061905 0.41971875,-1.77580173e-12 0.9375,-1.77580173e-12 L0.9375,-1.77580173e-12 Z" id="Combined-Shape"></path>
                </g>
            </g>
        </g>
    </g>
</svg>